<mxfile host="65bd71144e">
    <diagram id="43DB-VEL97SzryAKxGKC" name="Page-1">
        <mxGraphModel dx="624" dy="1144" grid="1" gridSize="10" guides="1" tooltips="1" connect="1" arrows="1" fold="1" page="1" pageScale="1" pageWidth="850" pageHeight="1100" math="0" shadow="0">
            <root>
                <mxCell id="0"/>
                <mxCell id="1" parent="0"/>
                <mxCell id="24" value="Shape" style="swimlane;fontStyle=0;childLayout=stackLayout;horizontal=1;startSize=26;fillColor=none;horizontalStack=0;resizeParent=1;resizeParentMax=0;resizeLast=0;collapsible=1;marginBottom=0;" parent="1" vertex="1">
                    <mxGeometry x="300" y="40" width="210" height="52" as="geometry"/>
                </mxCell>
                <mxCell id="25" value="# int: numberOfDimensions" style="text;strokeColor=none;fillColor=none;align=left;verticalAlign=top;spacingLeft=4;spacingRight=4;overflow=hidden;rotatable=0;points=[[0,0.5],[1,0.5]];portConstraint=eastwest;" parent="24" vertex="1">
                    <mxGeometry y="26" width="210" height="26" as="geometry"/>
                </mxCell>
                <mxCell id="63" style="edgeStyle=none;html=1;" parent="1" source="28" target="45" edge="1">
                    <mxGeometry relative="1" as="geometry"/>
                </mxCell>
                <mxCell id="78" style="edgeStyle=none;html=1;dashed=1;endArrow=none;endFill=0;" parent="1" source="28" target="34" edge="1">
                    <mxGeometry relative="1" as="geometry">
                        <Array as="points">
                            <mxPoint x="410" y="545"/>
                        </Array>
                    </mxGeometry>
                </mxCell>
                <mxCell id="28" value="Circle" style="html=1;" parent="1" vertex="1">
                    <mxGeometry x="140" y="520" width="110" height="50" as="geometry"/>
                </mxCell>
                <mxCell id="34" value="MainMenu" style="swimlane;fontStyle=1;align=center;verticalAlign=top;childLayout=stackLayout;horizontal=1;startSize=26;horizontalStack=0;resizeParent=1;resizeParentMax=0;resizeLast=0;collapsible=1;marginBottom=0;" parent="1" vertex="1">
                    <mxGeometry x="330" y="348" width="160" height="52" as="geometry"/>
                </mxCell>
                <mxCell id="95" value="+main(args:String[]) : Void" style="text;strokeColor=none;fillColor=none;align=left;verticalAlign=top;spacingLeft=4;spacingRight=4;overflow=hidden;rotatable=0;points=[[0,0.5],[1,0.5]];portConstraint=eastwest;" vertex="1" parent="34">
                    <mxGeometry y="26" width="160" height="26" as="geometry"/>
                </mxCell>
                <mxCell id="66" style="edgeStyle=none;html=1;" parent="1" source="38" target="47" edge="1">
                    <mxGeometry relative="1" as="geometry">
                        <Array as="points">
                            <mxPoint x="615" y="250"/>
                        </Array>
                    </mxGeometry>
                </mxCell>
                <mxCell id="73" style="edgeStyle=none;html=1;dashed=1;endArrow=none;endFill=0;" parent="1" source="38" target="34" edge="1">
                    <mxGeometry relative="1" as="geometry">
                        <Array as="points">
                            <mxPoint x="410" y="305"/>
                        </Array>
                    </mxGeometry>
                </mxCell>
                <mxCell id="38" value="Cone" style="html=1;" parent="1" vertex="1">
                    <mxGeometry x="590" y="280" width="110" height="50" as="geometry"/>
                </mxCell>
                <mxCell id="67" style="edgeStyle=none;html=1;entryX=0.5;entryY=1;entryDx=0;entryDy=0;" parent="1" source="39" target="38" edge="1">
                    <mxGeometry relative="1" as="geometry"/>
                </mxCell>
                <mxCell id="74" style="edgeStyle=none;html=1;dashed=1;endArrow=none;endFill=0;" parent="1" source="39" target="34" edge="1">
                    <mxGeometry relative="1" as="geometry">
                        <mxPoint x="490" y="385" as="targetPoint"/>
                        <Array as="points">
                            <mxPoint x="500" y="385"/>
                        </Array>
                    </mxGeometry>
                </mxCell>
                <mxCell id="39" value="Cube" style="html=1;" parent="1" vertex="1">
                    <mxGeometry x="590" y="360" width="110" height="50" as="geometry"/>
                </mxCell>
                <mxCell id="69" style="edgeStyle=none;html=1;entryX=0.5;entryY=1;entryDx=0;entryDy=0;" parent="1" source="40" target="42" edge="1">
                    <mxGeometry relative="1" as="geometry"/>
                </mxCell>
                <mxCell id="79" style="edgeStyle=none;html=1;dashed=1;endArrow=none;endFill=0;" parent="1" source="40" target="34" edge="1">
                    <mxGeometry relative="1" as="geometry">
                        <Array as="points">
                            <mxPoint x="410" y="545"/>
                        </Array>
                    </mxGeometry>
                </mxCell>
                <mxCell id="40" value="Cylinder" style="html=1;" parent="1" vertex="1">
                    <mxGeometry x="590" y="520" width="110" height="50" as="geometry"/>
                </mxCell>
                <mxCell id="64" style="edgeStyle=none;html=1;exitX=0.5;exitY=0;exitDx=0;exitDy=0;" parent="1" source="41" target="49" edge="1">
                    <mxGeometry relative="1" as="geometry"/>
                </mxCell>
                <mxCell id="72" style="html=1;dashed=1;endArrow=none;endFill=0;" parent="1" source="41" target="34" edge="1">
                    <mxGeometry relative="1" as="geometry">
                        <mxPoint x="420" y="305" as="targetPoint"/>
                        <Array as="points">
                            <mxPoint x="410" y="305"/>
                        </Array>
                    </mxGeometry>
                </mxCell>
                <mxCell id="41" value="Rectangle" style="html=1;" parent="1" vertex="1">
                    <mxGeometry x="140" y="280" width="110" height="50" as="geometry"/>
                </mxCell>
                <mxCell id="68" style="edgeStyle=none;html=1;entryX=0.5;entryY=1;entryDx=0;entryDy=0;" parent="1" source="42" target="39" edge="1">
                    <mxGeometry relative="1" as="geometry"/>
                </mxCell>
                <mxCell id="75" style="edgeStyle=none;html=1;exitX=0;exitY=0.5;exitDx=0;exitDy=0;dashed=1;endArrow=none;endFill=0;" parent="1" source="42" target="34" edge="1">
                    <mxGeometry relative="1" as="geometry">
                        <mxPoint x="480" y="465" as="targetPoint"/>
                        <Array as="points">
                            <mxPoint x="410" y="465"/>
                        </Array>
                    </mxGeometry>
                </mxCell>
                <mxCell id="42" value="Sphere" style="html=1;" parent="1" vertex="1">
                    <mxGeometry x="590" y="440" width="110" height="50" as="geometry"/>
                </mxCell>
                <mxCell id="60" style="edgeStyle=none;html=1;" parent="1" source="43" target="41" edge="1">
                    <mxGeometry relative="1" as="geometry"/>
                </mxCell>
                <mxCell id="76" style="edgeStyle=none;html=1;dashed=1;endArrow=none;endFill=0;" parent="1" source="43" target="34" edge="1">
                    <mxGeometry relative="1" as="geometry">
                        <mxPoint x="350" y="385" as="targetPoint"/>
                        <Array as="points">
                            <mxPoint x="320" y="385"/>
                        </Array>
                    </mxGeometry>
                </mxCell>
                <mxCell id="43" value="Square" style="html=1;" parent="1" vertex="1">
                    <mxGeometry x="140" y="360" width="110" height="50" as="geometry"/>
                </mxCell>
                <mxCell id="70" style="edgeStyle=none;html=1;entryX=0.5;entryY=1;entryDx=0;entryDy=0;" parent="1" source="44" target="40" edge="1">
                    <mxGeometry relative="1" as="geometry"/>
                </mxCell>
                <mxCell id="80" style="edgeStyle=none;html=1;dashed=1;endArrow=none;endFill=0;" parent="1" source="44" target="34" edge="1">
                    <mxGeometry relative="1" as="geometry">
                        <Array as="points">
                            <mxPoint x="410" y="625"/>
                        </Array>
                    </mxGeometry>
                </mxCell>
                <mxCell id="44" value="Torus" style="html=1;" parent="1" vertex="1">
                    <mxGeometry x="590" y="600" width="110" height="50" as="geometry"/>
                </mxCell>
                <mxCell id="61" style="edgeStyle=none;html=1;exitX=0.5;exitY=0;exitDx=0;exitDy=0;entryX=0.5;entryY=1;entryDx=0;entryDy=0;" parent="1" source="45" target="43" edge="1">
                    <mxGeometry relative="1" as="geometry"/>
                </mxCell>
                <mxCell id="77" style="edgeStyle=none;html=1;dashed=1;endArrow=none;endFill=0;" parent="1" source="45" target="34" edge="1">
                    <mxGeometry relative="1" as="geometry">
                        <mxPoint x="370" y="465" as="targetPoint"/>
                        <Array as="points">
                            <mxPoint x="410" y="465"/>
                        </Array>
                    </mxGeometry>
                </mxCell>
                <mxCell id="45" value="Triangle" style="html=1;" parent="1" vertex="1">
                    <mxGeometry x="140" y="440" width="110" height="50" as="geometry"/>
                </mxCell>
                <mxCell id="47" value="ThreeDimensionalShape" style="swimlane;fontStyle=0;childLayout=stackLayout;horizontal=1;startSize=26;fillColor=none;horizontalStack=0;resizeParent=1;resizeParentMax=0;resizeLast=0;collapsible=1;marginBottom=0;" parent="1" vertex="1">
                    <mxGeometry x="510" y="160" width="210" height="52" as="geometry"/>
                </mxCell>
                <mxCell id="48" value="# int: numberOfDimensions" style="text;strokeColor=none;fillColor=none;align=left;verticalAlign=top;spacingLeft=4;spacingRight=4;overflow=hidden;rotatable=0;points=[[0,0.5],[1,0.5]];portConstraint=eastwest;" parent="47" vertex="1">
                    <mxGeometry y="26" width="210" height="26" as="geometry"/>
                </mxCell>
                <mxCell id="49" value="TwoDimensionalShape" style="swimlane;fontStyle=0;childLayout=stackLayout;horizontal=1;startSize=26;fillColor=none;horizontalStack=0;resizeParent=1;resizeParentMax=0;resizeLast=0;collapsible=1;marginBottom=0;" parent="1" vertex="1">
                    <mxGeometry x="90" y="160" width="210" height="52" as="geometry"/>
                </mxCell>
                <mxCell id="50" value="# int: numberOfDimensions" style="text;strokeColor=none;fillColor=none;align=left;verticalAlign=top;spacingLeft=4;spacingRight=4;overflow=hidden;rotatable=0;points=[[0,0.5],[1,0.5]];portConstraint=eastwest;" parent="49" vertex="1">
                    <mxGeometry y="26" width="210" height="26" as="geometry"/>
                </mxCell>
                <mxCell id="54" value="" style="endArrow=block;endSize=16;endFill=0;html=1;" parent="1" edge="1">
                    <mxGeometry width="160" relative="1" as="geometry">
                        <mxPoint x="200" y="160" as="sourcePoint"/>
                        <mxPoint x="300" y="66" as="targetPoint"/>
                        <Array as="points">
                            <mxPoint x="200" y="66"/>
                        </Array>
                    </mxGeometry>
                </mxCell>
                <mxCell id="55" value="" style="endArrow=block;endSize=16;endFill=0;html=1;entryX=1;entryY=0.5;entryDx=0;entryDy=0;" parent="1" source="47" target="24" edge="1">
                    <mxGeometry width="160" relative="1" as="geometry">
                        <mxPoint x="620" y="100" as="sourcePoint"/>
                        <mxPoint x="615" y="66" as="targetPoint"/>
                        <Array as="points">
                            <mxPoint x="615" y="66"/>
                        </Array>
                    </mxGeometry>
                </mxCell>
                <mxCell id="82" value="DataValues" style="swimlane;fontStyle=1;align=center;verticalAlign=top;childLayout=stackLayout;horizontal=1;startSize=26;horizontalStack=0;resizeParent=1;resizeParentMax=0;resizeLast=0;collapsible=1;marginBottom=0;" vertex="1" parent="1">
                    <mxGeometry x="330" y="660" width="180" height="78" as="geometry"/>
                </mxCell>
                <mxCell id="96" value="- formatDouble : double : String" style="text;strokeColor=none;fillColor=none;align=left;verticalAlign=top;spacingLeft=4;spacingRight=4;overflow=hidden;rotatable=0;points=[[0,0.5],[1,0.5]];portConstraint=eastwest;" vertex="1" parent="82">
                    <mxGeometry y="26" width="180" height="26" as="geometry"/>
                </mxCell>
                <mxCell id="85" value="+ method to return values" style="text;strokeColor=none;fillColor=none;align=left;verticalAlign=top;spacingLeft=4;spacingRight=4;overflow=hidden;rotatable=0;points=[[0,0.5],[1,0.5]];portConstraint=eastwest;" vertex="1" parent="82">
                    <mxGeometry y="52" width="180" height="26" as="geometry"/>
                </mxCell>
                <mxCell id="92" value="" style="endArrow=open;endFill=1;endSize=12;html=1;" edge="1" parent="1" source="82" target="28">
                    <mxGeometry width="160" relative="1" as="geometry">
                        <mxPoint x="170" y="810" as="sourcePoint"/>
                        <mxPoint x="330" y="810" as="targetPoint"/>
                        <Array as="points">
                            <mxPoint x="195" y="700"/>
                        </Array>
                    </mxGeometry>
                </mxCell>
                <mxCell id="93" value="" style="endArrow=open;endFill=1;endSize=12;html=1;" edge="1" parent="1" source="82" target="44">
                    <mxGeometry width="160" relative="1" as="geometry">
                        <mxPoint x="510" y="710" as="sourcePoint"/>
                        <mxPoint x="670" y="710" as="targetPoint"/>
                        <Array as="points">
                            <mxPoint x="650" y="700"/>
                        </Array>
                    </mxGeometry>
                </mxCell>
                <mxCell id="97" value="" style="endArrow=diamondThin;endFill=1;endSize=24;html=1;" edge="1" parent="1" source="82" target="34">
                    <mxGeometry width="160" relative="1" as="geometry">
                        <mxPoint x="340" y="580" as="sourcePoint"/>
                        <mxPoint x="500" y="580" as="targetPoint"/>
                    </mxGeometry>
                </mxCell>
            </root>
        </mxGraphModel>
    </diagram>
</mxfile>